<svg width="1920" height="4320" viewBox="0 0 1920 4320" fill="none" xmlns="http://www.w3.org/2000/svg">
<g id="bg-hero">
<g id="bg-hero-1" clip-path="url(#clip0)">
<g id="Vector 1111" filter="url(#filter0_f)">
<path d="M471.031 646.55C438.805 980.878 2405.88 1018.7 1954.03 906.55C1502.18 794.397 1325.78 329.042 1692.03 110.05C1997.66 -72.6915 520.551 132.811 471.031 646.55Z" fill="url(#paint0_linear)" fill-opacity="0.3"/>
</g>
<circle id="Ellipse 2" cx="422.5" cy="36.5" r="2.5" fill="#F03E3E"/>
<circle id="Ellipse 3" cx="363" cy="115" r="2" fill="#F03E3E"/>
<circle id="Ellipse 6" cx="1248" cy="892" r="8" fill="#FF6B6B"/>
<circle id="Ellipse 9" cx="550" cy="578" r="6" fill="#FF6B6B"/>
<circle id="Ellipse 20" cx="565" cy="1026" r="5" fill="#FF6B6B"/>
<circle id="Ellipse 28" cx="554" cy="851" r="6" fill="#FF6B6B"/>
<circle id="Ellipse 16" cx="1103" cy="839" r="6" fill="#FF6B6B"/>
<circle id="Ellipse 10" cx="1485" cy="683" r="6" fill="#FF6B6B"/>
<circle id="Ellipse 11" cx="1267" cy="701" r="4" fill="#FF6B6B"/>
<circle id="Ellipse 21" cx="1130" cy="520" r="4" fill="#FF6B6B"/>
<circle id="Ellipse 27" cx="964" cy="520" r="4" fill="#FF6B6B"/>
<circle id="Ellipse 7" cx="730" cy="734" r="6" fill="#FF6B6B"/>
<circle id="Ellipse 25" cx="901" cy="578" r="6" fill="#FF6B6B"/>
<circle id="Ellipse 8" cx="1293" cy="561" r="5" fill="#FF6B6B"/>
<circle id="Ellipse 26" cx="1410" cy="788" r="5" fill="#FF6B6B"/>
<circle id="Ellipse 15" cx="732" cy="552" r="4" fill="#FF6B6B"/>
<circle id="Ellipse 24" cx="544" cy="693" r="4" fill="#FF6B6B"/>
<circle id="Ellipse 22" cx="670" cy="396" r="6" fill="#FF6B6B"/>
<circle id="Ellipse 23" cx="1188" cy="999" r="4" fill="#FF6B6B"/>
<path id="Vector 6" d="M-46.4295 404.043C248.858 504.353 588.541 548.681 927.514 477.082C1322.3 380.911 1721.05 448.612 1964.83 554.873" stroke="#3E3F40" stroke-opacity="0.7"/>
<path id="Vector 5" d="M-66.7712 800.425C240.586 644.098 583.206 657.438 907.172 873.464C1267.46 1116.16 1670.08 1115.96 1944.48 951.255" stroke="#3E3F40" stroke-opacity="0.7"/>
<path id="Vector 4" d="M-50.4294 100.043C231.218 286.538 572.068 323.489 923.514 173.082C1314.71 3.57998 1712.98 61.4701 1960.83 250.873" stroke="#3E3F40" stroke-opacity="0.7"/>
<circle id="Ellipse 4" cx="367.5" cy="40.5" r="1.5" fill="#D5D6D6"/>
</g>
<g id="bg-hero-2" clip-path="url(#clip1)">
<g id="Vector 1110" filter="url(#filter1_f)">
<path d="M1803.98 1638.86C892.985 1613.75 612.415 1165.51 295.588 1178.27C-102.685 1194.31 -28.4774 1614.75 295.588 1774.95C677.572 1963.78 2421.34 1655.87 1803.98 1638.86Z" fill="url(#paint1_linear)" fill-opacity="0.3"/>
</g>
<path id="Vector 6_2" d="M-46.4295 1484.04C248.858 1584.35 588.541 1628.68 927.514 1557.08C1322.3 1460.91 1721.05 1528.61 1964.83 1634.87" stroke="#3E3F40" stroke-opacity="0.7"/>
<path id="Vector 5_2" d="M-66.7712 1880.42C240.586 1724.1 583.206 1737.44 907.172 1953.46C1267.46 2196.16 1670.08 2195.96 1944.48 2031.25" stroke="#3E3F40" stroke-opacity="0.7"/>
<path id="Vector 4_2" d="M-50.4294 1180.04C231.218 1366.54 572.068 1403.49 923.514 1253.08C1314.71 1083.58 1712.98 1141.47 1960.83 1330.87" stroke="#3E3F40" stroke-opacity="0.7"/>
<circle id="Ellipse 6_2" cx="872" cy="1780" r="8" fill="#FF6B6B"/>
<circle id="Ellipse 9_2" cx="425" cy="1557" r="5" fill="#FF6B6B"/>
<circle id="Ellipse 17" cx="1009" cy="1354" r="9" fill="#FF6B6B"/>
<circle id="Ellipse 16_2" cx="1106" cy="1763" r="9" fill="#FF6B6B"/>
<circle id="Ellipse 14" cx="784" cy="1339" r="5" fill="#FF6B6B"/>
<circle id="Ellipse 12" cx="631" cy="1240" r="5" fill="#FF6B6B"/>
<circle id="Ellipse 10_2" cx="1400" cy="2095" r="8" fill="#FF6B6B"/>
<circle id="Ellipse 11_2" cx="783" cy="2115" r="4" fill="#FF6B6B"/>
<circle id="Ellipse 7_2" cx="694" cy="1641" r="4" fill="#FF6B6B"/>
<circle id="Ellipse 8_2" cx="415" cy="1922" r="5" fill="#FF6B6B"/>
<circle id="Ellipse 15_2" cx="525" cy="1317" r="5" fill="#FF6B6B"/>
</g>
<g id="bg-hero-3" clip-path="url(#clip2)">
<g id="Vector 1110_2" filter="url(#filter2_f)">
<path d="M1111.65 3160.03C621.31 2792.57 641.315 2437.58 462.441 2321.59C237.583 2175.77 115.089 2435.38 230.79 2649.13C367.17 2901.09 1443.95 3409.05 1111.65 3160.03Z" fill="url(#paint2_linear)" fill-opacity="0.5"/>
</g>
<g id="Vector 1111_2" filter="url(#filter3_f)">
<path d="M1012.43 2133.81C1405.7 2603.71 1305.01 2944.7 1452.6 3098.55C1638.13 3291.94 1816.77 3067.24 1753.04 2832.69C1677.93 2556.21 745.921 1815.38 1012.43 2133.81Z" fill="url(#paint3_linear)" fill-opacity="0.5"/>
</g>
<path id="Vector 6_3" d="M-46.4295 2564.04C248.858 2664.35 588.541 2708.68 927.514 2637.08C1322.3 2540.91 1721.05 2608.61 1964.83 2714.87" stroke="#3E3F40" stroke-opacity="0.7"/>
<path id="Vector 5_3" d="M-66.7712 2960.42C240.586 2804.1 583.206 2817.44 907.172 3033.46C1267.46 3276.16 1670.08 3275.96 1944.48 3111.25" stroke="#3E3F40" stroke-opacity="0.7"/>
<path id="Vector 4_3" d="M-50.4294 2260.04C231.218 2446.54 572.068 2483.49 923.514 2333.08C1314.71 2163.58 1712.98 2221.47 1960.83 2410.87" stroke="#3E3F40" stroke-opacity="0.7"/>
<circle id="Ellipse 6_3" cx="1528" cy="2760" r="8" fill="#FF6B6B"/>
<circle id="Ellipse 9_3" cx="1190" cy="2437" r="6" fill="#FF6B6B"/>
<circle id="Ellipse 12_2" cx="861" cy="2279" r="6" fill="#FF6B6B"/>
<circle id="Ellipse 10_3" cx="1400" cy="3175" r="8" fill="#FF6B6B"/>
<circle id="Ellipse 11_3" cx="783" cy="3195" r="4" fill="#FF6B6B"/>
<circle id="Ellipse 7_3" cx="700" cy="2727" r="10" fill="#FF6B6B"/>
<circle id="Ellipse 8_3" cx="415" cy="3002" r="5" fill="#FF6B6B"/>
</g>
<g id="bg-hero-4" clip-path="url(#clip3)">
<g id="Vector 1110_3" filter="url(#filter4_f)">
<path d="M1846.98 3977.86C935.985 3952.75 655.415 3504.51 338.588 3517.27C-59.685 3533.31 14.5226 3953.75 338.588 4113.95C720.572 4302.78 2464.34 3994.87 1846.98 3977.86Z" fill="url(#paint4_linear)" fill-opacity="0.3"/>
</g>
<path id="Vector 6_4" d="M-46.4295 3644.04C248.858 3744.35 588.541 3788.68 927.514 3717.08C1322.3 3620.91 1721.05 3688.61 1964.83 3794.87" stroke="#3E3F40" stroke-opacity="0.7"/>
<path id="Vector 5_4" d="M-66.7712 4040.42C240.586 3884.1 583.206 3897.44 907.172 4113.46C1267.46 4356.16 1670.08 4355.96 1944.48 4191.25" stroke="#3E3F40" stroke-opacity="0.7"/>
<path id="Vector 4_4" d="M-50.4294 3340.04C231.218 3526.54 572.068 3563.49 923.514 3413.08C1314.71 3243.58 1712.98 3301.47 1960.83 3490.87" stroke="#3E3F40" stroke-opacity="0.7"/>
<circle id="Ellipse 6_4" cx="1492" cy="3698" r="4" fill="#FF6B6B"/>
<circle id="Ellipse 9_4" cx="534" cy="3617" r="6" fill="#FF6B6B"/>
<circle id="Ellipse 19" cx="645" cy="4134" r="4" fill="#FF6B6B"/>
<circle id="Ellipse 17_2" cx="1048" cy="4103" r="6" fill="#FF6B6B"/>
<circle id="Ellipse 18" cx="411" cy="3807" r="2" fill="#FF6B6B"/>
<circle id="Ellipse 13" cx="1131" cy="3700" r="6" fill="#FF6B6B"/>
<circle id="Ellipse 14_2" cx="1309" cy="3999" r="2" fill="#FF6B6B"/>
<circle id="Ellipse 15_3" cx="903" cy="3639" r="4" fill="#FF6B6B"/>
<circle id="Ellipse 16_3" cx="1379" cy="3812" r="3" fill="#FF6B6B"/>
<circle id="Ellipse 12_3" cx="980" cy="3890" r="4" fill="#FF6B6B"/>
<circle id="Ellipse 10_4" cx="1411" cy="4226" r="8" fill="#FF6B6B"/>
<circle id="Ellipse 11_4" cx="820" cy="4238" r="4" fill="#FF6B6B"/>
<circle id="Ellipse 7_4" cx="730" cy="3712" r="6" fill="#FF6B6B"/>
<circle id="Ellipse 8_4" cx="426" cy="4053" r="5" fill="#FF6B6B"/>
<g id="Vector 1111_3" filter="url(#filter5_f)">
<path d="M1464.32 3738.57C1523.02 3470.16 -70.9758 3248.04 285.111 3383.1C641.197 3518.16 739.192 3913.28 420.409 4055.52C154.395 4174.2 1374.11 4151.01 1464.32 3738.57Z" fill="url(#paint5_linear)" fill-opacity="0.3"/>
</g>
</g>
</g>
<defs>
<filter id="filter0_f" x="120" y="-308" width="2253.35" height="1621.85" filterUnits="userSpaceOnUse" color-interpolation-filters="sRGB">
<feFlood flood-opacity="0" result="BackgroundImageFix"/>
<feBlend mode="normal" in="SourceGraphic" in2="BackgroundImageFix" result="shape"/>
<feGaussianBlur stdDeviation="175" result="effect1_foregroundBlur"/>
</filter>
<filter id="filter1_f" x="-326" y="828" width="2611" height="1358" filterUnits="userSpaceOnUse" color-interpolation-filters="sRGB">
<feFlood flood-opacity="0" result="BackgroundImageFix"/>
<feBlend mode="normal" in="SourceGraphic" in2="BackgroundImageFix" result="shape"/>
<feGaussianBlur stdDeviation="175" result="effect1_foregroundBlur"/>
</filter>
<filter id="filter2_f" x="-292" y="1866" width="2004.49" height="1803.12" filterUnits="userSpaceOnUse" color-interpolation-filters="sRGB">
<feFlood flood-opacity="0" result="BackgroundImageFix"/>
<feBlend mode="normal" in="SourceGraphic" in2="BackgroundImageFix" result="shape"/>
<feGaussianBlur stdDeviation="175" result="effect1_foregroundBlur"/>
</filter>
<filter id="filter3_f" x="372" y="1630" width="1882.8" height="1955.42" filterUnits="userSpaceOnUse" color-interpolation-filters="sRGB">
<feFlood flood-opacity="0" result="BackgroundImageFix"/>
<feBlend mode="normal" in="SourceGraphic" in2="BackgroundImageFix" result="shape"/>
<feGaussianBlur stdDeviation="175" result="effect1_foregroundBlur"/>
</filter>
<filter id="filter4_f" x="-283" y="3167" width="2611" height="1358" filterUnits="userSpaceOnUse" color-interpolation-filters="sRGB">
<feFlood flood-opacity="0" result="BackgroundImageFix"/>
<feBlend mode="normal" in="SourceGraphic" in2="BackgroundImageFix" result="shape"/>
<feGaussianBlur stdDeviation="175" result="effect1_foregroundBlur"/>
</filter>
<filter id="filter5_f" x="-116.818" y="2992.38" width="1932.72" height="1475.4" filterUnits="userSpaceOnUse" color-interpolation-filters="sRGB">
<feFlood flood-opacity="0" result="BackgroundImageFix"/>
<feBlend mode="normal" in="SourceGraphic" in2="BackgroundImageFix" result="shape"/>
<feGaussianBlur stdDeviation="175" result="effect1_foregroundBlur"/>
</filter>
<linearGradient id="paint0_linear" x1="612.784" y1="883.164" x2="926.488" y2="207.679" gradientUnits="userSpaceOnUse">
<stop stop-color="#FF6B6B"/>
<stop offset="0.0001" stop-color="#EE4747"/>
<stop offset="1" stop-color="#4E1919" stop-opacity="0"/>
</linearGradient>
<linearGradient id="paint1_linear" x1="1740.61" y1="1355.23" x2="1366.92" y2="2164.31" gradientUnits="userSpaceOnUse">
<stop stop-color="#FF6B6B"/>
<stop offset="0.0001" stop-color="#EE4747"/>
<stop offset="1" stop-color="#4E1919" stop-opacity="0"/>
</linearGradient>
<linearGradient id="paint2_linear" x1="1186.98" y1="2979.73" x2="667.733" y2="3278.8" gradientUnits="userSpaceOnUse">
<stop stop-color="#FF6B6B"/>
<stop offset="0.0001" stop-color="#EE4747"/>
<stop offset="1" stop-color="#4E1919" stop-opacity="0"/>
</linearGradient>
<linearGradient id="paint3_linear" x1="897.849" y1="2292.09" x2="1471.75" y2="2119.76" gradientUnits="userSpaceOnUse">
<stop stop-color="#FF6B6B"/>
<stop offset="0.0001" stop-color="#EE4747"/>
<stop offset="1" stop-color="#4E1919" stop-opacity="0"/>
</linearGradient>
<linearGradient id="paint4_linear" x1="1783.61" y1="3694.23" x2="1409.92" y2="4503.31" gradientUnits="userSpaceOnUse">
<stop stop-color="#FF6B6B"/>
<stop offset="0.0001" stop-color="#EE4747"/>
<stop offset="1" stop-color="#4E1919" stop-opacity="0"/>
</linearGradient>
<linearGradient id="paint5_linear" x1="1372.2" y1="3532.59" x2="1051.69" y2="4050.71" gradientUnits="userSpaceOnUse">
<stop stop-color="#FF6B6B"/>
<stop offset="0.0001" stop-color="#EE4747"/>
<stop offset="1" stop-color="#4E1919" stop-opacity="0"/>
</linearGradient>
<clipPath id="clip0">
<rect width="1920" height="1080" fill="white"/>
</clipPath>
<clipPath id="clip1">
<rect width="1920" height="1080" fill="white" transform="translate(0 1080)"/>
</clipPath>
<clipPath id="clip2">
<rect width="1920" height="1080" fill="white" transform="translate(0 2160)"/>
</clipPath>
<clipPath id="clip3">
<rect width="1920" height="1080" fill="white" transform="translate(0 3240)"/>
</clipPath>
</defs>
</svg>
