<svg width="494" height="428" viewBox="0 0 494 428" fill="none" xmlns="http://www.w3.org/2000/svg">
<g clip-path="url(#clip0)">
<g opacity="0.5">
<path opacity="0.5" d="M75.0593 76.2368H73.0991V87.3448H75.0593V76.2368Z" fill="#47E6B1"/>
<path opacity="0.5" d="M79.6333 82.7709V80.8107H68.5254V82.7709H79.6333Z" fill="#47E6B1"/>
</g>
<g opacity="0.5">
<path opacity="0.5" d="M144.739 317.986H142.779V329.094H144.739V317.986Z" fill="#47E6B1"/>
<path opacity="0.5" d="M149.307 324.52V322.56H138.199V324.52H149.307Z" fill="#47E6B1"/>
</g>
<g opacity="0.5">
<path opacity="0.5" d="M47.2044 188.959H45.2441V200.066H47.2044V188.959Z" fill="#47E6B1"/>
<path opacity="0.5" d="M51.7783 195.493V193.532H40.6704V195.493H51.7783Z" fill="#47E6B1"/>
</g>
<g opacity="0.5">
<path opacity="0.5" d="M390.39 0H388.43V11.1079H390.39V0Z" fill="#47E6B1"/>
<path opacity="0.5" d="M394.964 6.53409V4.57385L383.856 4.57385V6.53409L394.964 6.53409Z" fill="#47E6B1"/>
</g>
<g opacity="0.5">
<path opacity="0.5" d="M59.6306 27.6256H57.6704V38.7336H59.6306V27.6256Z" fill="#47E6B1"/>
<path opacity="0.5" d="M64.1987 34.1597V32.1995H53.0908V34.1597H64.1987Z" fill="#47E6B1"/>
</g>
<path opacity="0.5" d="M97.1871 278.346C96.6472 278.11 96.2128 277.684 95.9664 277.149C95.72 276.614 95.6789 276.007 95.8508 275.444C95.8786 275.358 95.8964 275.269 95.9038 275.179C95.9434 274.912 95.8899 274.639 95.7523 274.407C95.6148 274.174 95.4015 273.996 95.1483 273.903C94.8951 273.809 94.6173 273.805 94.3615 273.891C94.1057 273.978 93.8875 274.15 93.7434 274.378C93.6894 274.451 93.6439 274.53 93.608 274.614C93.3724 275.154 92.9465 275.588 92.4114 275.835C91.8763 276.081 91.2694 276.122 90.706 275.95C90.62 275.922 90.5311 275.905 90.4411 275.897C90.1739 275.858 89.9013 275.911 89.6689 276.049C89.4365 276.186 89.2585 276.399 89.1647 276.653C89.0708 276.906 89.0669 277.184 89.1535 277.439C89.2402 277.695 89.4121 277.913 89.6405 278.058C89.7135 278.112 89.7925 278.157 89.876 278.193C90.4158 278.429 90.8503 278.854 91.0966 279.39C91.343 279.925 91.3841 280.532 91.2122 281.095C91.1844 281.181 91.1667 281.27 91.1592 281.36C91.1197 281.627 91.1732 281.9 91.3107 282.132C91.4483 282.364 91.6615 282.542 91.9147 282.636C92.168 282.73 92.4458 282.734 92.7015 282.647C92.9573 282.561 93.1755 282.389 93.3196 282.16C93.3737 282.087 93.4191 282.008 93.455 281.925C93.6907 281.385 94.1165 280.951 94.6516 280.704C95.1867 280.458 95.7936 280.417 96.3571 280.589C96.443 280.617 96.5319 280.634 96.622 280.642C96.8891 280.681 97.1617 280.628 97.3941 280.49C97.6265 280.353 97.8045 280.139 97.8984 279.886C97.9922 279.633 97.9961 279.355 97.9095 279.099C97.8229 278.844 97.6509 278.625 97.4225 278.481C97.3495 278.427 97.2705 278.382 97.1871 278.346Z" fill="#4D8AF0"/>
<path opacity="0.5" d="M87.4741 383.921C86.9343 383.686 86.4998 383.26 86.2535 382.725C86.0071 382.19 85.966 381.583 86.1379 381.019C86.1657 380.933 86.1834 380.844 86.1909 380.754C86.2304 380.487 86.1769 380.215 86.0394 379.982C85.9018 379.75 85.6886 379.572 85.4353 379.478C85.1821 379.384 84.9043 379.38 84.6486 379.467C84.3928 379.554 84.1746 379.725 84.0305 379.954C83.9764 380.027 83.931 380.106 83.8951 380.189C83.6606 380.729 83.2361 381.164 82.7022 381.411C82.1684 381.659 81.5623 381.701 80.9989 381.531C80.913 381.504 80.8241 381.486 80.734 381.478C80.4669 381.439 80.1943 381.492 79.9619 381.63C79.7295 381.767 79.5515 381.981 79.4576 382.234C79.3638 382.487 79.3599 382.765 79.4465 383.021C79.5331 383.277 79.7051 383.495 79.9335 383.639C80.0065 383.693 80.0855 383.738 80.1689 383.774C80.7088 384.01 81.1432 384.436 81.3896 384.971C81.6359 385.506 81.6771 386.113 81.5052 386.676C81.4774 386.762 81.4596 386.851 81.4522 386.941C81.4126 387.208 81.4661 387.481 81.6037 387.713C81.7412 387.946 81.9545 388.124 82.2077 388.218C82.4609 388.311 82.7387 388.315 82.9945 388.229C83.2503 388.142 83.4685 387.97 83.6126 387.742C83.6666 387.669 83.7121 387.59 83.748 387.506C83.9836 386.966 84.4095 386.532 84.9446 386.286C85.4796 386.039 86.0866 385.998 86.65 386.17C86.736 386.198 86.8249 386.216 86.9149 386.223C87.182 386.263 87.4547 386.209 87.687 386.072C87.9194 385.934 88.0975 385.721 88.1913 385.468C88.2851 385.214 88.2891 384.937 88.2024 384.681C88.1158 384.425 87.9439 384.207 87.7155 384.063C87.6409 384.006 87.5599 383.959 87.4741 383.921Z" fill="#4D8AF0"/>
<path opacity="0.5" d="M444.788 150.225C444.248 149.989 443.814 149.563 443.567 149.028C443.321 148.493 443.28 147.886 443.452 147.323C443.48 147.237 443.497 147.148 443.505 147.058C443.544 146.791 443.491 146.518 443.353 146.286C443.216 146.053 443.003 145.875 442.749 145.782C442.496 145.688 442.218 145.684 441.963 145.77C441.707 145.857 441.489 146.029 441.345 146.257C441.29 146.33 441.245 146.409 441.209 146.493C440.975 147.033 440.55 147.467 440.016 147.715C439.482 147.962 438.876 148.005 438.313 147.835C438.227 147.807 438.138 147.79 438.048 147.782C437.781 147.743 437.508 147.796 437.276 147.934C437.043 148.071 436.865 148.284 436.772 148.538C436.678 148.791 436.674 149.069 436.76 149.324C436.847 149.58 437.019 149.798 437.247 149.942C437.32 149.996 437.399 150.042 437.483 150.078C438.023 150.314 438.457 150.739 438.704 151.274C438.95 151.81 438.991 152.416 438.819 152.98C438.791 153.066 438.774 153.155 438.766 153.245C438.727 153.512 438.78 153.785 438.918 154.017C439.055 154.249 439.268 154.427 439.522 154.521C439.775 154.615 440.053 154.619 440.308 154.532C440.564 154.446 440.782 154.274 440.927 154.045C440.981 153.972 441.026 153.893 441.062 153.81C441.298 153.27 441.723 152.836 442.259 152.589C442.794 152.343 443.401 152.302 443.964 152.474C444.05 152.501 444.139 152.519 444.229 152.527C444.496 152.566 444.769 152.513 445.001 152.375C445.233 152.238 445.411 152.024 445.505 151.771C445.599 151.518 445.603 151.24 445.516 150.984C445.43 150.729 445.258 150.51 445.029 150.366C444.955 150.31 444.874 150.262 444.788 150.225Z" fill="#4D8AF0"/>
<path opacity="0.5" d="M428.618 261.681C428.078 261.445 427.644 261.02 427.398 260.485C427.151 259.949 427.11 259.342 427.282 258.779C427.31 258.693 427.328 258.604 427.335 258.514C427.375 258.247 427.321 257.974 427.183 257.742C427.046 257.51 426.833 257.332 426.579 257.238C426.326 257.144 426.048 257.14 425.793 257.227C425.537 257.313 425.319 257.485 425.175 257.714C425.121 257.787 425.075 257.866 425.039 257.949C424.804 258.489 424.378 258.923 423.843 259.17C423.307 259.416 422.701 259.457 422.137 259.285C422.051 259.258 421.962 259.24 421.872 259.232C421.605 259.193 421.332 259.246 421.1 259.384C420.868 259.521 420.69 259.735 420.596 259.988C420.502 260.241 420.498 260.519 420.585 260.775C420.671 261.03 420.843 261.249 421.072 261.393C421.145 261.447 421.224 261.492 421.307 261.528C421.847 261.764 422.281 262.19 422.528 262.725C422.774 263.26 422.815 263.867 422.643 264.43C422.616 264.516 422.598 264.605 422.59 264.695C422.551 264.962 422.604 265.235 422.742 265.467C422.879 265.7 423.093 265.878 423.346 265.971C423.599 266.065 423.877 266.069 424.133 265.983C424.388 265.896 424.607 265.724 424.751 265.496C424.805 265.423 424.85 265.344 424.886 265.26C425.122 264.72 425.548 264.286 426.083 264.039C426.618 263.793 427.225 263.752 427.788 263.924C427.874 263.952 427.963 263.969 428.053 263.977C428.32 264.016 428.593 263.963 428.825 263.825C429.058 263.688 429.236 263.475 429.33 263.221C429.423 262.968 429.427 262.69 429.341 262.435C429.254 262.179 429.082 261.961 428.854 261.816C428.781 261.762 428.702 261.717 428.618 261.681Z" fill="#4D8AF0"/>
<path opacity="0.5" d="M440.668 39.5635C440.128 39.3279 439.693 38.902 439.447 38.3669C439.2 37.8318 439.159 37.2249 439.331 36.6615C439.359 36.5755 439.377 36.4866 439.384 36.3966C439.424 36.1294 439.37 35.8568 439.233 35.6244C439.095 35.392 438.882 35.214 438.629 35.1202C438.376 35.0263 438.098 35.0224 437.842 35.109C437.586 35.1957 437.368 35.3676 437.224 35.596C437.17 35.669 437.124 35.748 437.089 35.8315C436.853 36.3713 436.427 36.8058 435.892 37.0521C435.357 37.2985 434.75 37.3396 434.186 37.1677C434.1 37.14 434.012 37.1222 433.922 37.1147C433.654 37.0752 433.382 37.1287 433.149 37.2662C432.917 37.4038 432.739 37.617 432.645 37.8703C432.551 38.1235 432.547 38.4013 432.634 38.657C432.721 38.9128 432.893 39.131 433.121 39.2751C433.194 39.3292 433.273 39.3746 433.356 39.4105C433.896 39.6462 434.331 40.072 434.577 40.6071C434.823 41.1422 434.865 41.7491 434.693 42.3126C434.665 42.3985 434.647 42.4874 434.64 42.5775C434.6 42.8446 434.654 43.1172 434.791 43.3496C434.929 43.582 435.142 43.76 435.395 43.8539C435.648 43.9477 435.926 43.9516 436.182 43.865C436.438 43.7784 436.656 43.6064 436.8 43.378C436.854 43.305 436.9 43.226 436.935 43.1426C437.171 42.6027 437.597 42.1683 438.132 41.9219C438.667 41.6755 439.274 41.6344 439.838 41.8063C439.924 41.8341 440.012 41.8519 440.102 41.8593C440.37 41.8989 440.642 41.8454 440.875 41.7078C441.107 41.5703 441.285 41.357 441.379 41.1038C441.473 40.8506 441.477 40.5728 441.39 40.317C441.303 40.0612 441.131 39.843 440.903 39.6989C440.83 39.6449 440.751 39.5994 440.668 39.5635Z" fill="#4D8AF0"/>
<path opacity="0.5" d="M478.471 329.212C477.931 328.976 477.497 328.55 477.251 328.015C477.004 327.48 476.963 326.873 477.135 326.31C477.163 326.224 477.181 326.135 477.188 326.045C477.228 325.778 477.174 325.505 477.036 325.273C476.899 325.04 476.686 324.862 476.432 324.768C476.179 324.675 475.901 324.671 475.646 324.757C475.39 324.844 475.172 325.016 475.028 325.244C474.974 325.317 474.928 325.396 474.892 325.48C474.657 326.02 474.231 326.454 473.696 326.7C473.161 326.947 472.554 326.988 471.99 326.816C471.904 326.788 471.815 326.77 471.725 326.763C471.458 326.723 471.186 326.777 470.953 326.914C470.721 327.052 470.543 327.265 470.449 327.518C470.355 327.772 470.351 328.049 470.438 328.305C470.524 328.561 470.696 328.779 470.925 328.923C470.998 328.977 471.077 329.023 471.16 329.059C471.7 329.294 472.134 329.72 472.381 330.255C472.627 330.79 472.668 331.397 472.496 331.961C472.469 332.047 472.451 332.136 472.443 332.226C472.404 332.493 472.457 332.765 472.595 332.998C472.732 333.23 472.946 333.408 473.199 333.502C473.452 333.596 473.73 333.6 473.986 333.513C474.241 333.427 474.46 333.255 474.604 333.026C474.658 332.953 474.703 332.874 474.739 332.791C474.975 332.251 475.401 331.816 475.936 331.57C476.471 331.324 477.078 331.283 477.641 331.455C477.727 331.482 477.816 331.5 477.906 331.507C478.173 331.547 478.446 331.494 478.678 331.356C478.911 331.218 479.089 331.005 479.183 330.752C479.276 330.499 479.28 330.221 479.194 329.965C479.107 329.709 478.935 329.491 478.707 329.347C478.634 329.293 478.555 329.248 478.471 329.212Z" fill="#4D8AF0"/>
<path opacity="0.5" d="M3.92045 155.664C6.08565 155.664 7.8409 153.909 7.8409 151.744C7.8409 149.579 6.08565 147.823 3.92045 147.823C1.75524 147.823 0 149.579 0 151.744C0 153.909 1.75524 155.664 3.92045 155.664Z" fill="#F55F44"/>
<path opacity="0.5" d="M441.392 89.9172C443.557 89.9172 445.312 88.1619 445.312 85.9967C445.312 83.8315 443.557 82.0763 441.392 82.0763C439.226 82.0763 437.471 83.8315 437.471 85.9967C437.471 88.1619 439.226 89.9172 441.392 89.9172Z" fill="#F55F44"/>
<path opacity="0.5" d="M263.082 237.499C265.52 237.499 267.497 235.523 267.497 233.084C267.497 230.646 265.52 228.669 263.082 228.669C260.644 228.669 258.667 230.646 258.667 233.084C258.667 235.523 260.644 237.499 263.082 237.499Z" fill="#F55F44"/>
<path opacity="0.5" d="M263.082 237.499C265.52 237.499 267.497 235.523 267.497 233.084C267.497 230.646 265.52 228.669 263.082 228.669C260.644 228.669 258.667 230.646 258.667 233.084C258.667 235.523 260.644 237.499 263.082 237.499Z" fill="#F55F44"/>
<path opacity="0.5" d="M490.085 207.796C492.251 207.796 494.006 206.04 494.006 203.875C494.006 201.71 492.251 199.955 490.085 199.955C487.92 199.955 486.165 201.71 486.165 203.875C486.165 206.04 487.92 207.796 490.085 207.796Z" fill="#F55F44"/>
<path opacity="0.5" d="M173.165 32.2407C175.603 32.2407 177.58 30.2641 177.58 27.8258C177.58 25.3875 175.603 23.4109 173.165 23.4109C170.727 23.4109 168.75 25.3875 168.75 27.8258C168.75 30.2641 170.727 32.2407 173.165 32.2407Z" fill="#47E6B1"/>
<path opacity="0.5" d="M424.709 369.717C426.875 369.717 428.63 367.962 428.63 365.797C428.63 363.632 426.875 361.876 424.709 361.876C422.544 361.876 420.789 363.632 420.789 365.797C420.789 367.962 422.544 369.717 424.709 369.717Z" fill="#F55F44"/>
<path d="M180.541 224.596C178.222 232.125 181.718 241.025 188.505 244.987C191.354 246.647 194.633 247.483 197.394 249.284C203.392 253.193 205.759 260.675 207.707 267.562C209.944 275.479 212.187 283.85 210.138 291.814C208.832 296.895 205.859 301.386 204.169 306.354C202.756 310.516 202.264 314.934 202.727 319.305C202.974 321.624 203.551 324.014 205.141 325.745C207.436 328.217 211.133 328.588 214.453 329.182C221.472 330.51 228.077 333.482 233.725 337.855C239.373 342.229 243.904 347.878 246.947 354.341" stroke="url(#paint0_linear)" stroke-width="2" stroke-miterlimit="10"/>
<path d="M181.253 224.596C178.934 232.125 182.431 241.025 189.218 244.987C192.067 246.647 195.346 247.483 198.106 249.284C204.105 253.193 206.471 260.675 208.42 267.562C210.657 275.479 212.899 283.85 210.851 291.814C209.544 296.895 206.571 301.386 204.882 306.354C203.469 310.516 202.977 314.934 203.44 319.305C203.687 321.624 204.264 324.014 205.853 325.745C208.149 328.217 211.846 328.588 215.166 329.182C222.185 330.51 228.789 333.482 234.437 337.855C240.086 342.229 244.617 347.878 247.659 354.341" stroke="#535461" stroke-width="2" stroke-miterlimit="10"/>
<path d="M269.045 168.32C263.323 176.297 257.384 184.873 256.895 194.68C256.147 209.744 268.197 222.065 273.578 236.157C275.909 242.365 276.965 248.979 276.681 255.604C276.396 262.229 274.778 268.729 271.923 274.714C269.298 280.141 265.554 285.533 266.037 291.544C266.314 295.211 268.15 298.549 269.628 301.922C273.254 310.375 274.836 319.564 274.246 328.744C273.656 337.923 270.91 346.834 266.231 354.754" stroke="url(#paint1_linear)" stroke-width="2" stroke-miterlimit="10"/>
<path d="M269.751 168.32C264.036 176.326 258.096 184.879 257.596 194.68C256.848 209.744 268.898 222.065 274.278 236.157C276.61 242.365 277.665 248.979 277.381 255.604C277.097 262.229 275.479 268.729 272.624 274.714C269.999 280.141 266.255 285.533 266.738 291.544C267.014 295.211 268.851 298.549 270.328 301.922C273.955 310.375 275.537 319.564 274.947 328.744C274.357 337.923 271.611 346.834 266.932 354.754" stroke="#535461" stroke-width="2" stroke-miterlimit="10"/>
<path d="M349.326 240.066L352.093 262.617C352.458 265.613 352.77 268.88 351.163 271.447C349.638 273.866 346.777 275.02 344.552 276.81C337.247 282.696 337.912 293.945 340.431 302.975C342.951 312.005 346.577 321.706 343.075 330.395C341.626 333.98 339.072 337 337.188 340.367C333.956 346.121 332.676 352.767 333.538 359.31" stroke="url(#paint2_linear)" stroke-width="2" stroke-miterlimit="10"/>
<path d="M350.015 240.066L352.781 262.617C353.146 265.613 353.458 268.88 351.851 271.447C350.327 273.866 347.466 275.02 345.241 276.81C337.935 282.696 338.601 293.945 341.12 302.975C343.639 312.005 347.266 321.706 343.763 330.395C342.315 333.98 339.76 337 337.876 340.367C334.645 346.121 333.364 352.767 334.227 359.31" stroke="#535461" stroke-width="2" stroke-miterlimit="10"/>
<g opacity="0.7">
<path opacity="0.7" d="M421.066 147.376C421.061 136.826 418.56 126.426 413.767 117.028C408.974 107.629 402.026 99.4975 393.489 93.298C384.953 87.0985 375.07 83.0068 364.65 81.3573C354.229 79.7077 343.566 80.5471 333.533 83.8069C334.085 80.0507 334.37 76.2601 334.386 72.4635C334.413 55.1365 327.708 38.4766 315.688 25.9975C303.667 13.5185 287.269 6.19596 269.953 5.57442C252.637 4.95289 235.757 11.0809 222.872 22.666C209.988 34.2511 202.107 50.3876 200.891 67.6719C190.854 64.4051 180.187 63.5605 169.761 65.2071C159.336 66.8537 149.448 70.9447 140.907 77.1457C132.366 83.3466 125.413 91.4813 120.619 100.884C115.825 110.287 113.324 120.692 113.322 131.247C113.322 164.8 138.046 212.481 170.216 220.928L175.225 223.789L172.506 233.108H188.611L185.115 223.778L190.101 220.928C214.977 214.4 235.374 184.432 243.362 155.688C247.736 158.599 252.55 160.785 257.619 162.163L262.629 165.024L259.951 174.319H276.056L272.56 164.988L277.545 162.139C281.241 161.145 284.799 159.7 288.141 157.836C292.444 190.083 315.337 229.452 344.305 237.052L349.314 239.913L346.595 249.231H362.7L359.192 239.901L364.178 237.052C396.372 228.605 421.066 180.906 421.066 147.376Z" fill="url(#paint3_linear)"/>
</g>
<path d="M191.172 229.658H175.584L178.316 220.31H187.664L191.172 229.658Z" fill="#F55F44"/>
<path d="M247.659 131.094C247.659 166.813 218.703 219.139 182.99 219.139C147.276 219.139 118.32 166.807 118.32 131.094C118.32 113.941 125.134 97.4917 137.262 85.3632C149.39 73.2347 165.84 66.421 182.993 66.421C200.145 66.421 216.595 73.2347 228.723 85.3632C240.851 97.4917 247.665 113.941 247.665 131.094H247.659Z" fill="#F55F44"/>
<path d="M187.664 220.699H178.316L172.859 217.585H193.12L187.664 220.699Z" fill="#535461"/>
<path opacity="0.1" d="M159.614 80.8342C159.614 80.8342 132.342 95.6389 128.445 125.248L159.614 80.8342Z" fill="white"/>
<path d="M275.744 172.806H260.156L262.888 163.458H272.235L275.744 172.806Z" fill="#4D8AF0"/>
<path d="M332.232 74.2413C332.232 109.961 303.276 162.287 267.562 162.287C231.848 162.287 202.892 109.955 202.892 74.2413C202.892 57.089 209.706 40.6393 221.834 28.5108C233.963 16.3823 250.412 9.5686 267.565 9.5686C284.717 9.5686 301.167 16.3823 313.295 28.5108C325.424 40.6393 332.237 57.089 332.237 74.2413H332.232Z" fill="#FA5252"/>
<path d="M272.236 163.846H262.888L257.431 160.727H277.693L272.236 163.846Z" fill="#535461"/>
<path opacity="0.1" d="M244.186 23.9818C244.186 23.9818 216.914 38.7865 213.017 68.3959L244.186 23.9818Z" fill="white"/>
<path d="M359.604 245.299H344.016L346.747 235.945H356.095L359.604 245.299Z" fill="#3AD29F"/>
<path d="M416.091 146.728C416.091 182.448 387.135 234.774 351.422 234.774C315.708 234.774 286.746 182.448 286.746 146.728C286.746 129.576 293.56 113.126 305.688 100.998C317.817 88.8694 334.267 82.0557 351.419 82.0557C368.571 82.0557 385.021 88.8694 397.149 100.998C409.278 113.126 416.091 129.576 416.091 146.728Z" fill="#3AD29F"/>
<path d="M356.096 236.334H346.748L341.291 233.22H361.553L356.096 236.334Z" fill="#535461"/>
<path opacity="0.1" d="M328.046 96.4689C328.046 96.4689 300.774 111.274 296.877 140.883L328.046 96.4689Z" fill="white"/>
<g opacity="0.5">
<path opacity="0.5" d="M303.988 256.319C300.238 252.557 294.77 251.062 288.589 252.104C282.808 253.081 277.022 256.224 272.3 260.934C270.933 262.309 269.784 263.885 268.892 265.607C268.024 263.827 266.884 262.193 265.513 260.763C260.875 255.965 255.141 252.734 249.355 251.674C243.197 250.497 237.705 251.927 233.885 255.624C230.064 259.321 228.499 264.766 229.452 270.958C230.347 276.751 233.396 282.584 238.041 287.37C247.801 297.442 267.279 293.51 268.103 293.333L268.345 293.28L269.092 293.451C269.916 293.639 289.324 297.907 299.255 288.006C303.964 283.297 307.125 277.522 308.126 271.741C309.215 265.555 307.738 260.086 303.988 256.319ZM264.83 287.517C260.121 288.153 248.389 289.012 242.567 283.002C238.824 279.135 236.375 274.52 235.674 269.993C235.039 265.872 235.957 262.34 238.276 260.115C239.181 259.247 240.264 258.584 241.449 258.173C243.64 257.465 245.979 257.347 248.23 257.831C252.728 258.673 257.272 261.263 261.016 265.131C266.838 271.1 265.613 282.826 264.83 287.511V287.517ZM301.981 270.676C301.204 275.185 298.678 279.765 294.864 283.562C288.936 289.448 277.204 288.406 272.524 287.682C271.824 282.973 270.799 271.264 276.727 265.354C280.542 261.558 285.127 259.044 289.636 258.291C291.896 257.845 294.233 258.003 296.412 258.75C297.592 259.182 298.664 259.865 299.555 260.751C301.827 263.029 302.687 266.549 301.981 270.67V270.676Z" fill="url(#paint4_linear)"/>
</g>
<path d="M270.016 292.05L268.162 292.438C267.373 292.603 248.736 296.365 239.395 286.728C234.956 282.149 232.036 276.568 231.153 271.023C230.235 265.095 231.742 259.886 235.392 256.348C239.041 252.81 244.298 251.468 250.19 252.569C255.706 253.599 261.192 256.689 265.631 261.275C274.967 270.911 270.623 289.425 270.434 290.207L270.016 292.05ZM242.626 258.797C241.491 259.19 240.455 259.825 239.589 260.657C237.375 262.805 236.492 266.161 237.099 270.111C237.77 274.437 240.113 278.858 243.698 282.561C249.272 288.312 260.498 287.488 265.001 286.881C265.749 282.402 266.926 271.206 261.351 265.454C257.766 261.758 253.422 259.274 249.113 258.473C246.96 258.009 244.722 258.12 242.626 258.797Z" fill="#FA5252"/>
<path d="M267.262 292.132L266.849 290.284C266.673 289.495 262.646 270.911 272.147 261.44C276.668 256.937 282.202 253.94 287.735 253.004C293.622 252.004 298.878 253.434 302.451 257.037C306.025 260.639 307.455 265.866 306.437 271.753C305.483 277.281 302.469 282.808 297.948 287.311C288.447 296.783 269.875 292.697 269.104 292.521L267.262 292.132ZM295.223 259.327C293.141 258.613 290.907 258.461 288.747 258.885C284.427 259.615 280.041 262.023 276.386 265.655C270.711 271.312 271.676 282.52 272.365 287.017C276.857 287.7 288.071 288.718 293.739 283.067C297.389 279.429 299.802 275.05 300.55 270.705C301.227 266.767 300.403 263.394 298.225 261.21C297.371 260.374 296.347 259.732 295.223 259.327Z" fill="#FA5252"/>
<g opacity="0.5">
<path opacity="0.5" d="M358.156 287.182H177.433V323.343H186.822V428H348.767V323.343H358.156V287.182Z" fill="url(#paint5_linear)"/>
</g>
<path d="M346.718 298.113H188.87V426.222H346.718V298.113Z" fill="#535461"/>
<path d="M282.661 320.988H252.922V426.216H282.661V320.988Z" fill="#FA5252"/>
<path opacity="0.1" d="M346.718 291.249H188.87V323.278H346.718V291.249Z" fill="black"/>
<path d="M355.872 288.959H179.723V320.988H355.872V288.959Z" fill="#535461"/>
<path d="M282.661 288.959H252.922V320.988H282.661V288.959Z" fill="#FA5252"/>
</g>
<defs>
<linearGradient id="paint0_linear" x1="179.234" y1="289.483" x2="247.477" y2="289.483" gradientUnits="userSpaceOnUse">
<stop stop-color="#808080" stop-opacity="0.25"/>
<stop offset="0.54" stop-color="#808080" stop-opacity="0.12"/>
<stop offset="1" stop-color="#808080" stop-opacity="0.1"/>
</linearGradient>
<linearGradient id="paint1_linear" x1="12488.2" y1="99112.2" x2="13198.3" y2="99112.2" gradientUnits="userSpaceOnUse">
<stop stop-color="#808080" stop-opacity="0.25"/>
<stop offset="0.54" stop-color="#808080" stop-opacity="0.12"/>
<stop offset="1" stop-color="#808080" stop-opacity="0.1"/>
</linearGradient>
<linearGradient id="paint2_linear" x1="14579.4" y1="71257.1" x2="15239.5" y2="71257.1" gradientUnits="userSpaceOnUse">
<stop stop-color="#808080" stop-opacity="0.25"/>
<stop offset="0.54" stop-color="#808080" stop-opacity="0.12"/>
<stop offset="1" stop-color="#808080" stop-opacity="0.1"/>
</linearGradient>
<linearGradient id="paint3_linear" x1="195321" y1="124256" x2="195321" y2="23405.6" gradientUnits="userSpaceOnUse">
<stop stop-color="#808080" stop-opacity="0.25"/>
<stop offset="0.54" stop-color="#808080" stop-opacity="0.12"/>
<stop offset="1" stop-color="#808080" stop-opacity="0.1"/>
</linearGradient>
<linearGradient id="paint4_linear" x1="50749.4" y1="25631.4" x2="50749.4" y2="22453.5" gradientUnits="userSpaceOnUse">
<stop stop-color="#808080" stop-opacity="0.25"/>
<stop offset="0.54" stop-color="#808080" stop-opacity="0.12"/>
<stop offset="1" stop-color="#808080" stop-opacity="0.1"/>
</linearGradient>
<linearGradient id="paint5_linear" x1="82392.1" y1="102673" x2="82392.1" y2="68986.8" gradientUnits="userSpaceOnUse">
<stop stop-color="#808080" stop-opacity="0.25"/>
<stop offset="0.54" stop-color="#808080" stop-opacity="0.12"/>
<stop offset="1" stop-color="#808080" stop-opacity="0.1"/>
</linearGradient>
<clipPath id="clip0">
<rect width="494" height="428" fill="white"/>
</clipPath>
</defs>
</svg>
