<svg width="136" height="89" viewBox="0 0 136 89" fill="none" xmlns="http://www.w3.org/2000/svg">
<rect y="19" width="115" height="70" rx="4" fill="#F03E3E"/>
<path d="M5 26C5 26 56.703 57.3759 58.3003 57.3759C59.8977 57.3759 110 26 110 26M5 82L50 57M110 82L67 57" stroke="#F5F7F7" stroke-width="2"/>
<g filter="url(#filter0_d)">
<circle cx="115" cy="21" r="18" fill="#29282F"/>
</g>
<path d="M115.624 29C115.464 29 115.328 28.952 115.216 28.856C115.12 28.744 115.072 28.608 115.072 28.448V15.008L111.088 18.08C110.976 18.176 110.856 18.224 110.728 18.224C110.584 18.224 110.448 18.144 110.32 17.984L109.696 17.192C109.616 17.08 109.576 16.968 109.576 16.856C109.576 16.664 109.656 16.512 109.816 16.4L115.048 12.368C115.224 12.256 115.432 12.2 115.672 12.2H116.896C117.056 12.2 117.184 12.256 117.28 12.368C117.392 12.464 117.448 12.592 117.448 12.752V28.448C117.448 28.608 117.392 28.744 117.28 28.856C117.184 28.952 117.056 29 116.896 29H115.624Z" fill="#F5F7F7"/>
<defs>
<filter id="filter0_d" x="90" y="0" width="46" height="46" filterUnits="userSpaceOnUse" color-interpolation-filters="sRGB">
<feFlood flood-opacity="0" result="BackgroundImageFix"/>
<feColorMatrix in="SourceAlpha" type="matrix" values="0 0 0 0 0 0 0 0 0 0 0 0 0 0 0 0 0 0 127 0"/>
<feOffset dx="-2" dy="2"/>
<feGaussianBlur stdDeviation="2.5"/>
<feColorMatrix type="matrix" values="0 0 0 0 0 0 0 0 0 0 0 0 0 0 0 0 0 0 0.3 0"/>
<feBlend mode="normal" in2="BackgroundImageFix" result="effect1_dropShadow"/>
<feBlend mode="normal" in="SourceGraphic" in2="effect1_dropShadow" result="shape"/>
</filter>
</defs>
</svg>
