<svg width="30" height="30" viewBox="0 0 30 30" fill="none" xmlns="http://www.w3.org/2000/svg">
<g id="instagram">
<path id="Vector" d="M15.5352 8.79687C11.8086 8.79687 8.80273 11.8027 8.80273 15.5293C8.80273 19.2559 11.8086 22.2617 15.5352 22.2617C19.2617 22.2617 22.2676 19.2559 22.2676 15.5293C22.2676 11.8027 19.2617 8.79687 15.5352 8.79687ZM15.5352 19.9062C13.127 19.9062 11.1582 17.9434 11.1582 15.5293C11.1582 13.1152 13.1211 11.1523 15.5352 11.1523C17.9492 11.1523 19.9121 13.1152 19.9121 15.5293C19.9121 17.9434 17.9434 19.9062 15.5352 19.9062V19.9062ZM24.1133 8.52148C24.1133 9.39453 23.4102 10.0918 22.543 10.0918C21.6699 10.0918 20.9727 9.38867 20.9727 8.52148C20.9727 7.6543 21.6758 6.95117 22.543 6.95117C23.4102 6.95117 24.1133 7.6543 24.1133 8.52148ZM28.5723 10.1152C28.4727 8.01172 27.9922 6.14844 26.4512 4.61328C24.916 3.07812 23.0527 2.59766 20.9492 2.49219C18.7813 2.36914 12.2832 2.36914 10.1152 2.49219C8.01758 2.5918 6.1543 3.07227 4.61328 4.60742C3.07227 6.14258 2.59766 8.00586 2.49219 10.1094C2.36914 12.2773 2.36914 18.7754 2.49219 20.9434C2.5918 23.0469 3.07227 24.9102 4.61328 26.4453C6.1543 27.9805 8.01172 28.4609 10.1152 28.5664C12.2832 28.6895 18.7813 28.6895 20.9492 28.5664C23.0527 28.4668 24.916 27.9863 26.4512 26.4453C27.9863 24.9102 28.4668 23.0469 28.5723 20.9434C28.6953 18.7754 28.6953 12.2832 28.5723 10.1152V10.1152ZM25.7715 23.2695C25.3145 24.418 24.4297 25.3027 23.2754 25.7656C21.5469 26.4512 17.4453 26.293 15.5352 26.293C13.625 26.293 9.51758 26.4453 7.79492 25.7656C6.64648 25.3086 5.76172 24.4238 5.29883 23.2695C4.61328 21.541 4.77148 17.4395 4.77148 15.5293C4.77148 13.6191 4.61914 9.51172 5.29883 7.78906C5.75586 6.64062 6.64062 5.75586 7.79492 5.29297C9.52344 4.60742 13.625 4.76562 15.5352 4.76562C17.4453 4.76562 21.5527 4.61328 23.2754 5.29297C24.4238 5.75 25.3086 6.63477 25.7715 7.78906C26.457 9.51758 26.2988 13.6191 26.2988 15.5293C26.2988 17.4395 26.457 21.5469 25.7715 23.2695Z" fill="#D5D6D6"/>
</g>
</svg>
