<svg width="30" height="30" viewBox="0 0 30 30" fill="none" xmlns="http://www.w3.org/2000/svg">
<path d="M7.75078 26.2494H2.30859V8.72402H7.75078V26.2494ZM5.02676 6.3334C3.28652 6.3334 1.875 4.89199 1.875 3.15176C1.875 2.31586 2.20706 1.5142 2.79813 0.923128C3.3892 0.332059 4.19086 0 5.02676 0C5.86266 0 6.66432 0.332059 7.25539 0.923128C7.84646 1.5142 8.17852 2.31586 8.17852 3.15176C8.17852 4.89199 6.76641 6.3334 5.02676 6.3334ZM28.1191 26.2494H22.6887V17.7182C22.6887 15.685 22.6477 13.0775 19.8592 13.0775C17.0297 13.0775 16.5961 15.2865 16.5961 17.5717V26.2494H11.1598V8.72402H16.3793V11.1146H16.4555C17.182 9.73769 18.9568 8.28457 21.6047 8.28457C27.1125 8.28457 28.125 11.9115 28.125 16.6225V26.2494H28.1191Z" fill="#F5F7F7"/>
</svg>
