<svg width="72" height="72" viewBox="0 0 72 72" fill="none" xmlns="http://www.w3.org/2000/svg">
<path d="M56.0184 32.6183L32.1816 8.78159C31.1689 7.76889 29.7954 7.19996 28.3633 7.19995H5.4C2.41763 7.19995 0 9.61758 0 12.6V35.5632C7.48886e-06 36.9954 0.568939 38.3689 1.58164 39.3816L25.4184 63.2183C27.5271 65.3271 30.9462 65.3272 33.0551 63.2183L56.0184 40.255C58.1272 38.1462 58.1272 34.7271 56.0184 32.6183V32.6183ZM12.6 25.1999C9.61763 25.1999 7.2 22.7823 7.2 19.8C7.2 16.8176 9.61763 14.4 12.6 14.4C15.5824 14.4 18 16.8176 18 19.8C18 22.7823 15.5824 25.1999 12.6 25.1999ZM70.4184 40.255L47.4551 63.2183C45.3463 65.3271 41.9272 65.3271 39.8184 63.2183L39.7779 63.1778L59.3595 43.5962C61.2719 41.6838 62.325 39.1412 62.325 36.4367C62.325 33.7322 61.2718 31.1896 59.3595 29.2772L37.2822 7.19995H42.7633C44.1954 7.19996 45.5689 7.76889 46.5816 8.78159L70.4184 32.6183C72.5272 34.7271 72.5272 38.1462 70.4184 40.255Z" fill="#FA5252"/>
</svg>
